<svg width="358" height="204" viewBox="0 0 358 204" fill="none" xmlns="http://www.w3.org/2000/svg">
<rect width="358" height="204" rx="12" fill="url(#paint0_linear_1_151)"/>
<path d="M119.024 37.3076C117.829 37.3076 116.795 37.041 115.922 36.5078C115.049 35.9688 114.375 35.2041 113.9 34.2139C113.431 33.2178 113.197 32.0371 113.197 30.6719V30.6543C113.197 29.2832 113.431 28.1025 113.9 27.1123C114.375 26.1162 115.046 25.3516 115.913 24.8184C116.786 24.2793 117.823 24.0098 119.024 24.0098C119.985 24.0098 120.852 24.1973 121.626 24.5723C122.399 24.9473 123.029 25.4688 123.515 26.1367C124.002 26.7988 124.295 27.5605 124.394 28.4219V28.501H122.171L122.162 28.4482C122.056 27.9502 121.857 27.5166 121.564 27.1475C121.271 26.7725 120.908 26.4824 120.474 26.2773C120.041 26.0723 119.557 25.9697 119.024 25.9697C118.303 25.9697 117.679 26.1602 117.152 26.541C116.631 26.916 116.226 27.4551 115.939 28.1582C115.658 28.8555 115.517 29.6846 115.517 30.6455V30.6631C115.517 31.624 115.658 32.4561 115.939 33.1592C116.226 33.8564 116.631 34.3955 117.152 34.7764C117.679 35.1572 118.306 35.3477 119.033 35.3477C119.572 35.3477 120.055 35.2568 120.483 35.0752C120.917 34.8877 121.277 34.6211 121.564 34.2754C121.851 33.9297 122.051 33.5225 122.162 33.0537L122.179 33.001H124.403L124.394 33.0713C124.283 33.9209 123.987 34.6621 123.507 35.2949C123.026 35.9277 122.402 36.4229 121.634 36.7803C120.873 37.1318 120.003 37.3076 119.024 37.3076ZM129.295 37.1934C128.58 37.1934 127.979 37.0557 127.493 36.7803C127.007 36.499 126.64 36.0918 126.394 35.5586C126.148 35.0195 126.025 34.3721 126.025 33.6162V27.4111H128.214V33.1152C128.214 33.8535 128.36 34.4102 128.653 34.7852C128.946 35.1602 129.424 35.3477 130.086 35.3477C130.437 35.3477 130.748 35.2949 131.017 35.1895C131.287 35.0781 131.512 34.9199 131.694 34.7148C131.882 34.5098 132.019 34.2637 132.107 33.9766C132.201 33.6836 132.248 33.3584 132.248 33.001V27.4111H134.436V37H132.248V35.541H132.107C131.961 35.8809 131.756 36.1768 131.492 36.4287C131.228 36.6748 130.912 36.8652 130.543 37C130.174 37.1289 129.758 37.1934 129.295 37.1934ZM136.542 37V27.4111H138.721V28.8877H138.871C139.035 28.3662 139.328 27.9648 139.75 27.6836C140.178 27.3965 140.705 27.2529 141.332 27.2529C141.496 27.2529 141.654 27.2617 141.806 27.2793C141.965 27.2969 142.099 27.3203 142.211 27.3496V29.3096C142.035 29.2686 141.856 29.2393 141.675 29.2217C141.499 29.1982 141.317 29.1865 141.13 29.1865C140.643 29.1865 140.219 29.2773 139.855 29.459C139.498 29.6406 139.22 29.8984 139.02 30.2324C138.821 30.5664 138.721 30.9648 138.721 31.4277V37H136.542ZM143.543 37V27.4111H145.722V28.8877H145.872C146.036 28.3662 146.329 27.9648 146.751 27.6836C147.179 27.3965 147.706 27.2529 148.333 27.2529C148.497 27.2529 148.655 27.2617 148.807 27.2793C148.966 27.2969 149.1 27.3203 149.212 27.3496V29.3096C149.036 29.2686 148.857 29.2393 148.676 29.2217C148.5 29.1982 148.318 29.1865 148.131 29.1865C147.644 29.1865 147.22 29.2773 146.856 29.459C146.499 29.6406 146.221 29.8984 146.021 30.2324C145.822 30.5664 145.722 30.9648 145.722 31.4277V37H143.543ZM154.279 37.1934C153.33 37.1934 152.513 36.9912 151.827 36.5869C151.147 36.1826 150.623 35.6113 150.254 34.873C149.885 34.1289 149.7 33.2471 149.7 32.2275V32.2188C149.7 31.2109 149.882 30.335 150.245 29.5908C150.614 28.8408 151.136 28.2578 151.809 27.8418C152.483 27.4258 153.274 27.2178 154.182 27.2178C155.091 27.2178 155.873 27.4199 156.529 27.8242C157.191 28.2227 157.701 28.7822 158.058 29.5029C158.416 30.2236 158.595 31.0674 158.595 32.0342V32.7549H150.799V31.2871H157.522L156.485 32.6582V31.7881C156.485 31.1494 156.389 30.6191 156.195 30.1973C156.002 29.7754 155.732 29.459 155.387 29.248C155.047 29.0371 154.654 28.9316 154.209 28.9316C153.758 28.9316 153.356 29.043 153.005 29.2656C152.659 29.4824 152.384 29.8047 152.179 30.2324C151.979 30.6543 151.88 31.1729 151.88 31.7881V32.667C151.88 33.2529 151.979 33.7568 152.179 34.1787C152.378 34.6006 152.659 34.9229 153.022 35.1455C153.391 35.3682 153.828 35.4795 154.332 35.4795C154.724 35.4795 155.061 35.4238 155.343 35.3125C155.624 35.1953 155.852 35.0576 156.028 34.8994C156.21 34.7354 156.333 34.5771 156.397 34.4248L156.424 34.3633H158.498L158.48 34.4512C158.404 34.7617 158.264 35.0781 158.058 35.4004C157.859 35.7168 157.587 36.0127 157.241 36.2881C156.901 36.5576 156.485 36.7773 155.993 36.9473C155.501 37.1113 154.93 37.1934 154.279 37.1934ZM160.217 37V27.4111H162.396V28.8789H162.546C162.774 28.3633 163.12 27.959 163.583 27.666C164.046 27.3672 164.626 27.2178 165.323 27.2178C166.395 27.2178 167.213 27.5283 167.775 28.1494C168.344 28.7705 168.628 29.6523 168.628 30.7949V37H166.439V31.2959C166.439 30.5518 166.281 29.9951 165.965 29.626C165.654 29.251 165.171 29.0635 164.515 29.0635C164.075 29.0635 163.697 29.1602 163.381 29.3535C163.07 29.5469 162.827 29.8193 162.651 30.1709C162.481 30.5166 162.396 30.9297 162.396 31.4102V37H160.217ZM174.407 37.0527C173.311 37.0527 172.52 36.8506 172.034 36.4463C171.548 36.042 171.305 35.377 171.305 34.4512V29.0986H169.819V27.4111H171.305V25.0469H173.528V27.4111H175.541V29.0986H173.528V33.9502C173.528 34.4248 173.628 34.7705 173.827 34.9873C174.032 35.2041 174.36 35.3125 174.811 35.3125C174.964 35.3125 175.09 35.3096 175.189 35.3037C175.295 35.292 175.412 35.2803 175.541 35.2686V36.9561C175.389 36.9795 175.213 37 175.014 37.0176C174.82 37.041 174.618 37.0527 174.407 37.0527ZM186.695 37.1582C186.244 37.1582 185.831 37.0938 185.456 36.9648C185.081 36.8301 184.75 36.6396 184.463 36.3936C184.182 36.1416 183.953 35.8428 183.777 35.4971H183.628V37H181.439V23.7021H183.628V28.9404H183.777C183.947 28.5889 184.176 28.29 184.463 28.0439C184.75 27.792 185.084 27.5986 185.465 27.4639C185.846 27.3232 186.256 27.2529 186.695 27.2529C187.504 27.2529 188.201 27.4521 188.787 27.8506C189.379 28.249 189.833 28.8203 190.149 29.5645C190.472 30.3027 190.633 31.1787 190.633 32.1924V32.21C190.633 33.2236 190.472 34.1025 190.149 34.8467C189.827 35.585 189.37 36.1562 188.778 36.5605C188.192 36.959 187.498 37.1582 186.695 37.1582ZM186.01 35.3125C186.508 35.3125 186.936 35.1895 187.293 34.9434C187.65 34.6973 187.926 34.3428 188.119 33.8799C188.313 33.4111 188.409 32.8545 188.409 32.21V32.1924C188.409 31.5479 188.313 30.9971 188.119 30.54C187.926 30.0771 187.65 29.7197 187.293 29.4678C186.936 29.2158 186.508 29.0898 186.01 29.0898C185.518 29.0898 185.09 29.2158 184.727 29.4678C184.369 29.7197 184.091 30.0771 183.892 30.54C183.698 31.0029 183.602 31.5566 183.602 32.2012V32.2188C183.602 32.8574 183.698 33.4082 183.892 33.8711C184.085 34.334 184.363 34.6914 184.727 34.9434C185.09 35.1895 185.518 35.3125 186.01 35.3125ZM194.892 37.1582C194.282 37.1582 193.74 37.041 193.266 36.8066C192.791 36.5723 192.416 36.2412 192.141 35.8135C191.871 35.3799 191.736 34.873 191.736 34.293V34.2754C191.736 33.7012 191.877 33.209 192.158 32.7988C192.44 32.3887 192.85 32.0664 193.389 31.832C193.934 31.5977 194.596 31.457 195.375 31.4102L198.926 31.1992V32.6406L195.683 32.8516C195.073 32.8867 194.622 33.0156 194.329 33.2383C194.036 33.4609 193.89 33.7686 193.89 34.1611V34.1787C193.89 34.5889 194.045 34.9082 194.356 35.1367C194.666 35.3652 195.065 35.4795 195.551 35.4795C195.99 35.4795 196.383 35.3916 196.729 35.2158C197.074 35.04 197.347 34.8027 197.546 34.5039C197.745 34.1992 197.845 33.8564 197.845 33.4756V30.4521C197.845 29.9717 197.692 29.6025 197.388 29.3447C197.083 29.0869 196.635 28.958 196.043 28.958C195.539 28.958 195.129 29.0459 194.813 29.2217C194.496 29.3975 194.282 29.6436 194.171 29.96L194.162 29.9951H192.097L192.106 29.9248C192.182 29.3799 192.393 28.9053 192.738 28.501C193.09 28.0967 193.556 27.7832 194.136 27.5605C194.716 27.332 195.387 27.2178 196.149 27.2178C196.969 27.2178 197.666 27.3467 198.24 27.6045C198.82 27.8623 199.26 28.2314 199.559 28.7119C199.857 29.1924 200.007 29.7695 200.007 30.4434V37H197.845V35.6729H197.695C197.52 35.9834 197.291 36.25 197.01 36.4727C196.734 36.6953 196.418 36.8652 196.061 36.9824C195.703 37.0996 195.314 37.1582 194.892 37.1582ZM202.139 37V23.7021H204.327V37H202.139ZM209.14 37.1582C208.53 37.1582 207.988 37.041 207.514 36.8066C207.039 36.5723 206.664 36.2412 206.389 35.8135C206.119 35.3799 205.985 34.873 205.985 34.293V34.2754C205.985 33.7012 206.125 33.209 206.406 32.7988C206.688 32.3887 207.098 32.0664 207.637 31.832C208.182 31.5977 208.844 31.457 209.623 31.4102L213.174 31.1992V32.6406L209.931 32.8516C209.321 32.8867 208.87 33.0156 208.577 33.2383C208.284 33.4609 208.138 33.7686 208.138 34.1611V34.1787C208.138 34.5889 208.293 34.9082 208.604 35.1367C208.914 35.3652 209.313 35.4795 209.799 35.4795C210.238 35.4795 210.631 35.3916 210.977 35.2158C211.322 35.04 211.595 34.8027 211.794 34.5039C211.993 34.1992 212.093 33.8564 212.093 33.4756V30.4521C212.093 29.9717 211.941 29.6025 211.636 29.3447C211.331 29.0869 210.883 28.958 210.291 28.958C209.787 28.958 209.377 29.0459 209.061 29.2217C208.744 29.3975 208.53 29.6436 208.419 29.96L208.41 29.9951H206.345L206.354 29.9248C206.43 29.3799 206.641 28.9053 206.986 28.501C207.338 28.0967 207.804 27.7832 208.384 27.5605C208.964 27.332 209.635 27.2178 210.397 27.2178C211.217 27.2178 211.914 27.3467 212.488 27.6045C213.069 27.8623 213.508 28.2314 213.807 28.7119C214.106 29.1924 214.255 29.7695 214.255 30.4434V37H212.093V35.6729H211.944C211.768 35.9834 211.539 36.25 211.258 36.4727C210.983 36.6953 210.666 36.8652 210.309 36.9824C209.951 37.0996 209.562 37.1582 209.14 37.1582ZM216.308 37V27.4111H218.487V28.8789H218.637C218.865 28.3633 219.211 27.959 219.674 27.666C220.137 27.3672 220.717 27.2178 221.414 27.2178C222.487 27.2178 223.304 27.5283 223.866 28.1494C224.435 28.7705 224.719 29.6523 224.719 30.7949V37H222.53V31.2959C222.53 30.5518 222.372 29.9951 222.056 29.626C221.745 29.251 221.262 29.0635 220.606 29.0635C220.166 29.0635 219.788 29.1602 219.472 29.3535C219.161 29.5469 218.918 29.8193 218.742 30.1709C218.572 30.5166 218.487 30.9297 218.487 31.4102V37H216.308ZM230.85 37.1934C229.889 37.1934 229.066 36.9941 228.38 36.5957C227.7 36.1973 227.176 35.626 226.807 34.8818C226.444 34.1318 226.262 33.2324 226.262 32.1836V32.166C226.262 31.1348 226.444 30.25 226.807 29.5117C227.17 28.7734 227.695 28.208 228.38 27.8154C229.066 27.417 229.889 27.2178 230.85 27.2178C231.67 27.2178 232.376 27.3613 232.968 27.6484C233.566 27.9355 234.037 28.3311 234.383 28.835C234.735 29.3389 234.951 29.9189 235.033 30.5752V30.6191H232.968L232.959 30.5928C232.86 30.124 232.631 29.7402 232.274 29.4414C231.922 29.1426 231.45 28.9932 230.859 28.9932C230.361 28.9932 229.933 29.1191 229.575 29.3711C229.224 29.6172 228.954 29.9775 228.767 30.4521C228.579 30.9268 228.486 31.501 228.486 32.1748V32.1924C228.486 32.8662 228.579 33.4463 228.767 33.9326C228.96 34.4131 229.233 34.7822 229.584 35.04C229.936 35.292 230.361 35.418 230.859 35.418C231.427 35.418 231.884 35.2891 232.23 35.0312C232.575 34.7734 232.816 34.3926 232.95 33.8887L232.968 33.8535L235.025 33.8447L235.016 33.915C234.916 34.5654 234.691 35.1367 234.339 35.6289C233.993 36.1211 233.528 36.5049 232.942 36.7803C232.362 37.0557 231.664 37.1934 230.85 37.1934ZM240.655 37.1934C239.705 37.1934 238.888 36.9912 238.202 36.5869C237.523 36.1826 236.998 35.6113 236.629 34.873C236.26 34.1289 236.075 33.2471 236.075 32.2275V32.2188C236.075 31.2109 236.257 30.335 236.62 29.5908C236.99 28.8408 237.511 28.2578 238.185 27.8418C238.859 27.4258 239.65 27.2178 240.558 27.2178C241.466 27.2178 242.248 27.4199 242.905 27.8242C243.567 28.2227 244.076 28.7822 244.434 29.5029C244.791 30.2236 244.97 31.0674 244.97 32.0342V32.7549H237.174V31.2871H243.898L242.861 32.6582V31.7881C242.861 31.1494 242.764 30.6191 242.571 30.1973C242.377 29.7754 242.108 29.459 241.762 29.248C241.422 29.0371 241.03 28.9316 240.584 28.9316C240.133 28.9316 239.732 29.043 239.38 29.2656C239.034 29.4824 238.759 29.8047 238.554 30.2324C238.355 30.6543 238.255 31.1729 238.255 31.7881V32.667C238.255 33.2529 238.355 33.7568 238.554 34.1787C238.753 34.6006 239.034 34.9229 239.398 35.1455C239.767 35.3682 240.203 35.4795 240.707 35.4795C241.1 35.4795 241.437 35.4238 241.718 35.3125C241.999 35.1953 242.228 35.0576 242.404 34.8994C242.585 34.7354 242.708 34.5771 242.773 34.4248L242.799 34.3633H244.873L244.856 34.4512C244.78 34.7617 244.639 35.0781 244.434 35.4004C244.235 35.7168 243.962 36.0127 243.616 36.2881C243.277 36.5576 242.861 36.7773 242.368 36.9473C241.876 37.1113 241.305 37.1934 240.655 37.1934Z" fill="white"/>
<path d="M87.9686 105.436C85.1577 105.436 82.678 105.024 80.5296 104.201C78.3811 103.359 76.6714 102.151 75.4002 100.575C74.1469 98.9818 73.4397 97.075 73.2786 94.855L73.2518 94.4521H80.4222L80.4759 94.7476C80.6549 95.6606 81.0309 96.4753 81.6038 97.1914C82.1946 97.8896 83.0271 98.4357 84.1014 98.8296C85.1756 99.2235 86.5363 99.4204 88.1834 99.4204C89.8126 99.4204 91.1375 99.2324 92.158 98.8564C93.1785 98.4626 93.9305 97.9344 94.4139 97.272C94.8973 96.5916 95.139 95.8128 95.139 94.9355V94.8818C95.139 93.7181 94.7182 92.7871 93.8768 92.0889C93.0532 91.3727 91.4866 90.764 89.177 90.2627L84.6385 89.2959C82.2573 88.7946 80.261 88.0874 78.6497 87.1743C77.0384 86.2433 75.8299 85.0885 75.0242 83.71C74.2186 82.3135 73.8157 80.6663 73.8157 78.7686V78.7148C73.8157 76.5127 74.4065 74.597 75.5882 72.9678C76.7698 71.3206 78.417 70.0495 80.5296 69.1543C82.6422 68.2591 85.0771 67.8115 87.8343 67.8115C90.5914 67.8115 92.9995 68.2323 95.0584 69.0737C97.1352 69.8973 98.7734 71.0968 99.9729 72.6724C101.19 74.23 101.889 76.1188 102.068 78.3389L102.121 78.7954H94.951L94.8973 78.5537C94.754 77.5332 94.3781 76.6738 93.7693 75.9756C93.1606 75.2594 92.3549 74.7223 91.3523 74.3643C90.3676 74.0062 89.195 73.8271 87.8343 73.8271C86.402 73.8271 85.2024 74.0241 84.2356 74.418C83.2688 74.7939 82.5348 75.3132 82.0335 75.9756C81.5501 76.6201 81.3084 77.3363 81.3084 78.124V78.1777C81.3084 78.8939 81.4874 79.5384 81.8455 80.1113C82.2036 80.6842 82.7854 81.1855 83.5911 81.6152C84.4147 82.0449 85.4978 82.403 86.8406 82.6895L91.4598 83.6562C95.2016 84.444 97.9946 85.6615 99.8387 87.3086C101.701 88.9557 102.632 91.2295 102.632 94.1299V94.1836C102.632 96.5648 101.996 98.5968 100.725 100.28C99.4716 101.945 97.7439 103.225 95.5418 104.12C93.3396 104.997 90.8152 105.436 87.9686 105.436ZM86.6526 109.894V63.3535H89.3382V109.894H86.6526ZM122.547 106.671C120.201 106.671 118.044 106.26 116.074 105.436C114.123 104.612 112.413 103.386 110.945 101.757C109.495 100.11 108.367 98.0597 107.561 95.6069C106.773 93.1362 106.38 90.2537 106.38 86.9595V86.9058C106.38 82.6805 107.033 79.0461 108.34 76.0024C109.647 72.9588 111.509 70.6313 113.926 69.02C116.361 67.3908 119.261 66.5762 122.627 66.5762C125.134 66.5762 127.39 67.0238 129.395 67.9189C131.4 68.7962 133.056 70.0137 134.363 71.5713C135.688 73.1289 136.538 74.9014 136.914 76.8887L136.968 77.1572H128.965L128.884 76.9155C128.562 76.1278 128.106 75.4474 127.515 74.8745C126.942 74.2837 126.244 73.8271 125.42 73.5049C124.597 73.1647 123.657 72.9946 122.6 72.9946C120.72 72.9946 119.172 73.5407 117.954 74.6328C116.755 75.7249 115.851 77.193 115.242 79.0371C114.633 80.8812 114.275 82.9491 114.168 85.2407C114.15 85.5093 114.132 85.7778 114.114 86.0464C114.114 86.3149 114.114 86.5835 114.114 86.8521L115.349 93.2974C115.349 94.5864 115.663 95.7591 116.289 96.8154C116.916 97.8538 117.766 98.6864 118.841 99.313C119.915 99.9217 121.114 100.226 122.439 100.226C123.764 100.226 124.964 99.9217 126.038 99.313C127.112 98.7043 127.971 97.8896 128.616 96.8691C129.26 95.8307 129.583 94.6759 129.583 93.4048V93.3511C129.583 92.0083 129.269 90.8177 128.643 89.7793C128.034 88.7409 127.193 87.9352 126.118 87.3623C125.062 86.7715 123.862 86.4761 122.52 86.4761C121.177 86.4761 119.96 86.7715 118.867 87.3623C117.775 87.9352 116.916 88.7319 116.289 89.7524C115.663 90.7729 115.349 91.9367 115.349 93.2437V93.2974H113.711V86.7178H114.275C114.794 85.5182 115.546 84.453 116.531 83.522C117.534 82.591 118.733 81.8569 120.13 81.3198C121.544 80.7648 123.119 80.4873 124.856 80.4873C127.363 80.4873 129.556 81.0334 131.436 82.1255C133.334 83.1997 134.811 84.6857 135.867 86.5835C136.941 88.4813 137.478 90.6387 137.478 93.0557V93.1094C137.478 95.7591 136.834 98.1045 135.545 100.146C134.256 102.169 132.483 103.762 130.227 104.926C127.989 106.09 125.429 106.671 122.547 106.671ZM155.916 66.5762C158.261 66.5762 160.41 66.988 162.361 67.8115C164.331 68.6172 166.041 69.8436 167.491 71.4907C168.959 73.1379 170.087 75.1968 170.875 77.6675C171.68 80.1203 172.083 82.9849 172.083 86.2612V86.3149C172.083 90.5581 171.43 94.2015 170.123 97.2451C168.816 100.271 166.954 102.598 164.537 104.228C162.12 105.857 159.219 106.671 155.836 106.671C153.347 106.671 151.091 106.224 149.068 105.329C147.063 104.433 145.407 103.216 144.1 101.676C142.793 100.119 141.942 98.3372 141.548 96.332L141.495 96.0903H149.498L149.578 96.3052C149.9 97.075 150.348 97.7554 150.921 98.3462C151.512 98.937 152.219 99.4025 153.043 99.7427C153.866 100.065 154.806 100.226 155.862 100.226C157.76 100.226 159.309 99.68 160.508 98.5879C161.708 97.4958 162.612 96.0277 163.221 94.1836C163.847 92.3216 164.205 90.2537 164.295 87.98C164.313 87.7114 164.322 87.4518 164.322 87.2012C164.34 86.9326 164.349 86.6641 164.349 86.3955L163.113 79.9502C163.113 78.6432 162.8 77.4705 162.173 76.4321C161.547 75.3758 160.696 74.5433 159.622 73.9346C158.548 73.3258 157.348 73.0215 156.024 73.0215C154.699 73.0215 153.499 73.3258 152.425 73.9346C151.351 74.5254 150.491 75.34 149.847 76.3784C149.202 77.3989 148.88 78.5537 148.88 79.8428V79.8965C148.88 81.2393 149.184 82.4299 149.793 83.4683C150.42 84.4888 151.261 85.2944 152.317 85.8853C153.392 86.4582 154.6 86.7446 155.943 86.7446C157.304 86.7446 158.521 86.4582 159.595 85.8853C160.687 85.3123 161.547 84.5156 162.173 83.4951C162.8 82.4746 163.113 81.3019 163.113 79.9771V79.9502H164.752V86.5029H164.188C163.668 87.7025 162.916 88.7767 161.932 89.7256C160.947 90.6566 159.747 91.3906 158.333 91.9277C156.937 92.4648 155.361 92.7334 153.607 92.7334C151.118 92.7334 148.925 92.1963 147.027 91.1221C145.129 90.0299 143.643 88.535 142.569 86.6372C141.513 84.7394 140.984 82.582 140.984 80.165V80.1113C140.984 77.4795 141.629 75.1431 142.918 73.1021C144.207 71.061 145.971 69.4676 148.209 68.3218C150.464 67.158 153.034 66.5762 155.916 66.5762ZM190.682 106.671C187.406 106.671 184.586 105.857 182.223 104.228C179.859 102.598 178.042 100.289 176.771 97.2988C175.518 94.291 174.891 90.7371 174.891 86.6372V86.5835C174.891 82.4657 175.518 78.9118 176.771 75.9219C178.042 72.932 179.859 70.6313 182.223 69.02C184.586 67.3908 187.406 66.5762 190.682 66.5762C193.958 66.5762 196.769 67.3908 199.115 69.02C201.478 70.6313 203.295 72.932 204.566 75.9219C205.838 78.9118 206.473 82.4657 206.473 86.5835V86.6372C206.473 90.7371 205.838 94.291 204.566 97.2988C203.295 100.289 201.478 102.598 199.115 104.228C196.769 105.857 193.958 106.671 190.682 106.671ZM190.682 100.172C192.293 100.172 193.663 99.6353 194.791 98.561C195.919 97.4868 196.778 95.9382 197.369 93.915C197.978 91.8919 198.282 89.466 198.282 86.6372V86.5835C198.282 83.7368 197.978 81.3109 197.369 79.3057C196.778 77.2826 195.919 75.7428 194.791 74.6865C193.663 73.6123 192.293 73.0752 190.682 73.0752C189.071 73.0752 187.692 73.6123 186.546 74.6865C185.418 75.7428 184.559 77.2826 183.968 79.3057C183.377 81.3109 183.082 83.7368 183.082 86.5835V86.6372C183.082 89.466 183.377 91.8919 183.968 93.915C184.559 95.9382 185.418 97.4868 186.546 98.561C187.692 99.6353 189.071 100.172 190.682 100.172ZM212.37 106.457C211.152 106.457 210.123 106.036 209.281 105.194C208.44 104.353 208.019 103.323 208.019 102.106C208.019 100.889 208.44 99.859 209.281 99.0176C210.123 98.1761 211.152 97.7554 212.37 97.7554C213.587 97.7554 214.616 98.1761 215.458 99.0176C216.299 99.859 216.72 100.889 216.72 102.106C216.72 103.323 216.299 104.353 215.458 105.194C214.616 106.036 213.587 106.457 212.37 106.457ZM239.106 106V98.8833H219.824V92.1157C220.862 90.4686 221.9 88.8125 222.939 87.1475C223.977 85.4824 225.016 83.8263 226.054 82.1792C227.092 80.5142 228.122 78.8581 229.142 77.2109C230.181 75.5459 231.219 73.8809 232.258 72.2158C233.296 70.5508 234.334 68.8947 235.373 67.2476H246.813V92.4111H251.916V98.8833H246.813V106H239.106ZM226.887 92.626H239.267V73.1021H239.079C238.255 74.3911 237.441 75.6802 236.635 76.9692C235.829 78.2583 235.015 79.5474 234.191 80.8364C233.386 82.1076 232.571 83.3966 231.747 84.7036C230.942 85.9927 230.127 87.2817 229.304 88.5708C228.498 89.842 227.692 91.1221 226.887 92.4111V92.626ZM269.736 106.671C266.46 106.671 263.64 105.857 261.277 104.228C258.913 102.598 257.096 100.289 255.825 97.2988C254.572 94.291 253.945 90.7371 253.945 86.6372V86.5835C253.945 82.4657 254.572 78.9118 255.825 75.9219C257.096 72.932 258.913 70.6313 261.277 69.02C263.64 67.3908 266.46 66.5762 269.736 66.5762C273.012 66.5762 275.823 67.3908 278.169 69.02C280.532 70.6313 282.349 72.932 283.62 75.9219C284.891 78.9118 285.527 82.4657 285.527 86.5835V86.6372C285.527 90.7371 284.891 94.291 283.62 97.2988C282.349 100.289 280.532 102.598 278.169 104.228C275.823 105.857 273.012 106.671 269.736 106.671ZM269.736 100.172C271.347 100.172 272.717 99.6353 273.845 98.561C274.973 97.4868 275.832 95.9382 276.423 93.915C277.032 91.8919 277.336 89.466 277.336 86.6372V86.5835C277.336 83.7368 277.032 81.3109 276.423 79.3057C275.832 77.2826 274.973 75.7428 273.845 74.6865C272.717 73.6123 271.347 73.0752 269.736 73.0752C268.125 73.0752 266.746 73.6123 265.6 74.6865C264.472 75.7428 263.613 77.2826 263.022 79.3057C262.431 81.3109 262.136 83.7368 262.136 86.5835V86.6372C262.136 89.466 262.431 91.8919 263.022 93.915C263.613 95.9382 264.472 97.4868 265.6 98.561C266.746 99.6353 268.125 100.172 269.736 100.172Z" fill="white"/>
<g filter="url(#filter0_d_1_151)">
<rect x="95.5" y="136" width="167" height="44" rx="12" fill="white" shape-rendering="crispEdges"/>
<path d="M151.243 163.789C150.154 163.789 149.214 163.549 148.422 163.07C147.631 162.591 147.021 161.909 146.594 161.023C146.167 160.138 145.953 159.086 145.953 157.867V157.852C145.953 156.633 146.167 155.581 146.594 154.695C147.021 153.81 147.628 153.13 148.414 152.656C149.206 152.177 150.149 151.938 151.243 151.938C152.133 151.938 152.933 152.112 153.641 152.461C154.354 152.81 154.93 153.292 155.368 153.906C155.805 154.521 156.06 155.224 156.133 156.016V156.117H153.844L153.836 156.062C153.758 155.641 153.599 155.271 153.36 154.953C153.12 154.63 152.818 154.38 152.453 154.203C152.094 154.026 151.69 153.938 151.243 153.938C150.654 153.938 150.144 154.096 149.711 154.414C149.279 154.727 148.946 155.177 148.711 155.766C148.482 156.349 148.368 157.044 148.368 157.852V157.867C148.368 158.669 148.482 159.365 148.711 159.953C148.946 160.542 149.279 160.995 149.711 161.312C150.144 161.63 150.657 161.789 151.25 161.789C151.703 161.789 152.107 161.708 152.461 161.547C152.821 161.38 153.118 161.148 153.352 160.852C153.591 160.549 153.75 160.198 153.828 159.797L153.844 159.727H156.141V159.82C156.058 160.607 155.8 161.297 155.368 161.891C154.935 162.484 154.368 162.951 153.664 163.289C152.961 163.622 152.154 163.789 151.243 163.789ZM159.95 163.633C159.408 163.633 158.924 163.529 158.497 163.32C158.075 163.107 157.744 162.807 157.505 162.422C157.265 162.031 157.145 161.576 157.145 161.055V161.039C157.145 160.523 157.273 160.081 157.528 159.711C157.789 159.341 158.166 159.052 158.661 158.844C159.161 158.63 159.768 158.503 160.481 158.461L163.684 158.266V159.656L160.825 159.844C160.335 159.87 159.971 159.974 159.731 160.156C159.492 160.339 159.372 160.586 159.372 160.898V160.914C159.372 161.242 159.497 161.5 159.747 161.688C159.997 161.875 160.32 161.969 160.716 161.969C161.07 161.969 161.385 161.898 161.661 161.758C161.937 161.617 162.156 161.427 162.317 161.188C162.479 160.943 162.559 160.669 162.559 160.367V157.625C162.559 157.25 162.434 156.964 162.184 156.766C161.94 156.562 161.583 156.461 161.114 156.461C160.703 156.461 160.367 156.531 160.106 156.672C159.851 156.807 159.679 157.003 159.591 157.258L159.575 157.289H157.466L157.473 157.219C157.536 156.714 157.726 156.273 158.044 155.898C158.367 155.523 158.799 155.232 159.341 155.023C159.888 154.815 160.52 154.711 161.239 154.711C161.999 154.711 162.645 154.828 163.177 155.062C163.708 155.292 164.111 155.625 164.388 156.062C164.669 156.495 164.809 157.016 164.809 157.625V163.5H162.559V162.359H162.419C162.273 162.625 162.078 162.854 161.833 163.047C161.593 163.234 161.312 163.38 160.989 163.484C160.671 163.583 160.325 163.633 159.95 163.633ZM169.986 163.68C169.204 163.68 168.538 163.573 167.986 163.359C167.439 163.141 167.009 162.841 166.697 162.461C166.389 162.081 166.21 161.646 166.158 161.156L166.15 161.125H168.392L168.408 161.156C168.501 161.422 168.678 161.641 168.939 161.812C169.204 161.984 169.561 162.07 170.009 162.07C170.301 162.07 170.556 162.031 170.775 161.953C170.993 161.87 171.165 161.758 171.29 161.617C171.415 161.477 171.478 161.312 171.478 161.125V161.109C171.478 160.88 171.384 160.69 171.197 160.539C171.009 160.388 170.697 160.263 170.259 160.164L168.822 159.859C168.275 159.745 167.819 159.578 167.454 159.359C167.09 159.135 166.816 158.862 166.634 158.539C166.457 158.216 166.368 157.841 166.368 157.414V157.406C166.368 156.865 166.517 156.393 166.814 155.992C167.116 155.586 167.535 155.271 168.072 155.047C168.613 154.823 169.241 154.711 169.954 154.711C170.704 154.711 171.342 154.826 171.868 155.055C172.394 155.279 172.798 155.581 173.079 155.961C173.366 156.336 173.525 156.755 173.556 157.219V157.25H171.439L171.431 157.211C171.368 156.977 171.212 156.771 170.962 156.594C170.712 156.411 170.374 156.32 169.947 156.32C169.686 156.32 169.454 156.359 169.251 156.438C169.048 156.516 168.887 156.625 168.767 156.766C168.652 156.906 168.595 157.073 168.595 157.266V157.273C168.595 157.424 168.634 157.557 168.712 157.672C168.79 157.786 168.918 157.885 169.095 157.969C169.272 158.052 169.509 158.128 169.806 158.195L171.236 158.5C172.095 158.688 172.73 158.969 173.142 159.344C173.553 159.719 173.759 160.224 173.759 160.859V160.867C173.759 161.435 173.598 161.93 173.275 162.352C172.952 162.773 172.506 163.102 171.939 163.336C171.371 163.565 170.72 163.68 169.986 163.68ZM175.224 163.5V151.609H177.506V156.227H177.646C177.844 155.758 178.151 155.388 178.568 155.117C178.985 154.846 179.5 154.711 180.115 154.711C180.756 154.711 181.292 154.839 181.724 155.094C182.162 155.344 182.493 155.708 182.717 156.188C182.946 156.667 183.06 157.25 183.06 157.938V163.5H180.779V158.453C180.779 157.844 180.651 157.383 180.396 157.07C180.141 156.758 179.743 156.602 179.201 156.602C178.852 156.602 178.55 156.682 178.295 156.844C178.045 157 177.849 157.221 177.709 157.508C177.573 157.794 177.506 158.133 177.506 158.523V163.5H175.224ZM192.257 163.68C191.376 163.68 190.619 163.503 189.983 163.148C189.348 162.789 188.861 162.276 188.522 161.609C188.184 160.938 188.014 160.135 188.014 159.203V159.188C188.014 158.26 188.186 157.464 188.53 156.797C188.874 156.13 189.361 155.617 189.991 155.258C190.626 154.893 191.382 154.711 192.257 154.711C193.132 154.711 193.884 154.891 194.514 155.25C195.15 155.609 195.639 156.125 195.983 156.797C196.327 157.464 196.499 158.26 196.499 159.188V159.203C196.499 160.135 196.329 160.938 195.991 161.609C195.652 162.276 195.165 162.789 194.53 163.148C193.9 163.503 193.142 163.68 192.257 163.68ZM192.257 161.891C192.663 161.891 193.007 161.784 193.288 161.57C193.569 161.357 193.785 161.049 193.936 160.648C194.087 160.247 194.163 159.766 194.163 159.203V159.188C194.163 158.625 194.087 158.146 193.936 157.75C193.785 157.349 193.566 157.042 193.28 156.828C192.999 156.609 192.658 156.5 192.257 156.5C191.856 156.5 191.512 156.609 191.225 156.828C190.944 157.042 190.728 157.349 190.577 157.75C190.426 158.146 190.35 158.625 190.35 159.188V159.203C190.35 159.771 190.423 160.255 190.569 160.656C190.72 161.057 190.936 161.365 191.217 161.578C191.504 161.786 191.85 161.891 192.257 161.891ZM200.722 163.68C200.081 163.68 199.542 163.555 199.105 163.305C198.672 163.055 198.347 162.69 198.128 162.211C197.909 161.727 197.8 161.143 197.8 160.461V154.898H200.081V159.938C200.081 160.547 200.201 161.008 200.441 161.32C200.685 161.633 201.079 161.789 201.62 161.789C201.902 161.789 202.149 161.745 202.362 161.656C202.581 161.562 202.764 161.432 202.909 161.266C203.055 161.099 203.165 160.898 203.237 160.664C203.316 160.424 203.355 160.159 203.355 159.867V154.898H205.636V163.5H203.355V162.172H203.214C203.084 162.484 202.902 162.755 202.667 162.984C202.433 163.208 202.152 163.38 201.823 163.5C201.495 163.62 201.128 163.68 200.722 163.68ZM211.015 163.531C209.974 163.531 209.224 163.349 208.765 162.984C208.307 162.615 208.078 162.013 208.078 161.18V156.617H206.75V154.898H208.078V152.844H210.382V154.898H212.156V156.617H210.382V160.656C210.382 161.042 210.468 161.326 210.64 161.508C210.817 161.685 211.099 161.773 211.484 161.773C211.63 161.773 211.75 161.771 211.843 161.766C211.942 161.755 212.047 161.745 212.156 161.734V163.43C212.015 163.456 211.846 163.479 211.648 163.5C211.45 163.521 211.239 163.531 211.015 163.531Z" fill="#080C10"/>
</g>
<defs>
<filter id="filter0_d_1_151" x="93.5" y="136" width="171" height="48" filterUnits="userSpaceOnUse" color-interpolation-filters="sRGB">
<feFlood flood-opacity="0" result="BackgroundImageFix"/>
<feColorMatrix in="SourceAlpha" type="matrix" values="0 0 0 0 0 0 0 0 0 0 0 0 0 0 0 0 0 0 127 0" result="hardAlpha"/>
<feOffset dy="2"/>
<feGaussianBlur stdDeviation="1"/>
<feComposite in2="hardAlpha" operator="out"/>
<feColorMatrix type="matrix" values="0 0 0 0 0.0996247 0 0 0 0 0.349392 0 0 0 0 0.991652 0 0 0 0.04 0"/>
<feBlend mode="normal" in2="BackgroundImageFix" result="effect1_dropShadow_1_151"/>
<feBlend mode="normal" in="SourceGraphic" in2="effect1_dropShadow_1_151" result="shape"/>
</filter>
<linearGradient id="paint0_linear_1_151" x1="-5.33462e-06" y1="204" x2="70.1289" y2="-72.9059" gradientUnits="userSpaceOnUse">
<stop stop-color="#7394C6"/>
<stop offset="0.484375" stop-color="#076AFF"/>
<stop offset="1" stop-color="#42EEF9"/>
</linearGradient>
</defs>
</svg>
